<?xml version="1.0" encoding="utf-8"?>
<!-- Generator: Adobe Illustrator 15.0.0, SVG Export Plug-In . SVG Version: 6.00 Build 0)  -->
<!DOCTYPE svg PUBLIC "-//W3C//DTD SVG 1.1//EN" "http://www.w3.org/Graphics/SVG/1.1/DTD/svg11.dtd">
<svg version="1.1" id="Layer_1" xmlns="http://www.w3.org/2000/svg" xmlns:xlink="http://www.w3.org/1999/xlink" x="0px" y="0px"
	 width="300px" height="150px" viewBox="0 0 300 150" enable-background="new 0 0 300 150" xml:space="preserve">
<g id="Layer_1_1_" display="none">
	<g display="inline">
		
			<rect x="62.997" y="37.668" transform="matrix(-0.9995 0.0306 -0.0306 -0.9995 186.5727 146.812)" fill="#E9204F" width="58.332" height="74.332"/>
		<text transform="matrix(1 0 0 1 126.7988 82.0273)" font-family="'AvantGardeCE-Demi'" font-size="54.037">AL</text>
		<text transform="matrix(1 0 0 1 190.5723 82.0273)" font-family="'AvantGardeCE-Demi'" font-size="47.9404">I</text>
		<text transform="matrix(1 0 0 1 203.9863 82.0273)" font-family="'AvantGardeCE-Demi'" font-size="54.037">TE</text>
		<text transform="matrix(1 0 0 1 65.1318 88.1953)" fill="#FFFFFF" font-family="'AvantGardeCE-Demi'" font-size="41.4437">ap</text>
		<text transform="matrix(1 0 0 1 127.7251 106.0225)" font-family="'AvantGardeCE-Book'" font-size="26.5172">PROJECTS</text>
		<rect x="193.918" y="36.533" fill="#E9204F" width="6.623" height="6.936"/>
	</g>
</g>
<g>
	
		<rect x="19.488" y="25.601" transform="matrix(-0.9995 0.0306 -0.0306 -0.9995 120.0775 149.7893)" fill="#E9204F" width="78.809" height="100.425"/>
	<g>
		<path fill="#FFFFFF" d="M56.681,60.668v31.086h-6.835v-3.855c-1.404,1.531-2.976,2.727-4.716,3.582
			c-1.741,0.856-3.778,1.285-6.111,1.285c-2.789,0-5.304-0.67-7.546-2.01c-2.242-1.34-4.069-3.285-5.482-5.837
			c-1.413-2.552-2.119-5.459-2.119-8.722c0-3.153,0.688-6.006,2.064-8.558c1.376-2.552,3.281-4.525,5.714-5.919
			c2.433-1.365,4.971-2.091,7.614-2.091c1.805,0,3.408,0.283,4.812,0.847c1.403,0.565,2.602,1.244,3.595,2.037
			c0.993,0.793,1.682,1.49,2.064,2.091h0.109v-3.937L56.681,60.668L56.681,60.668z M49.627,76.145c0-2.898-0.871-5.241-2.611-7.027
			c-1.741-1.786-3.914-2.679-6.521-2.679c-1.677,0-3.222,0.424-4.634,1.271c-1.413,0.847-2.525,2.069-3.335,3.664
			c-0.812,1.595-1.217,3.258-1.217,4.99c0,2.716,0.897,4.988,2.693,6.82s3.978,2.748,6.548,2.748c2.715,0,4.908-0.947,6.575-2.844
			C48.793,81.191,49.627,78.878,49.627,76.145z"/>
		<path fill="#FFFFFF" d="M61.958,102.117V60.668h6.835v3.636h0.109c1.385-1.585,2.861-2.761,4.429-3.527
			c1.567-0.766,3.417-1.148,5.55-1.148c2.898,0,5.532,0.688,7.902,2.064c2.369,1.376,4.255,3.386,5.659,6.029
			c1.403,2.643,2.105,5.514,2.105,8.612c0,4.63-1.545,8.525-4.634,11.688c-3.089,3.164-6.794,4.744-11.114,4.744
			c-1.914,0-3.577-0.301-4.989-0.901c-1.413-0.603-2.885-1.632-4.416-3.091v13.344H61.958z M68.957,76.198
			c0,1.805,0.4,3.468,1.203,4.989c0.802,1.521,1.969,2.692,3.5,3.514c1.531,0.82,2.989,1.23,4.375,1.23
			c1.436,0,2.893-0.416,4.361-1.244c1.467-0.83,2.62-2,3.458-3.515c0.838-1.513,1.257-3.162,1.257-4.948
			c0-2.789-0.898-5.117-2.693-6.985c-1.795-1.868-3.905-2.802-6.329-2.802c-0.82,0-1.623,0.119-2.406,0.355
			c-0.783,0.236-1.544,0.579-2.283,1.025c-0.736,0.446-1.454,1.057-2.146,1.832c-0.693,0.775-1.249,1.736-1.667,2.885
			C69.166,73.683,68.957,74.904,68.957,76.198z"/>
	</g>
	<g>
		<path d="M111.186,87.214l22.494-54.043h7.807l22.636,54.043h-11.051l-5.736-13.938h-19.357l-5.775,13.938H111.186z
			 M143.732,63.864l-6.131-16.577h-0.143l-6.131,16.577H143.732z"/>
		<path d="M169.971,87.214V33.171h10.018v44.703h16.47v9.34H169.971z"/>
		<path d="M201.498,87.214V36.268h8.887v47.946H201.498z"/>
		<path d="M225.416,87.214V42.546h-10.018v-9.375h30.086v9.375h-10.088v44.667L225.416,87.214L225.416,87.214z"/>
		<path d="M250.084,87.214V33.171h29.055v9.375h-19.037v13.19h18.252v9.34h-18.252v12.798h19.037v9.34H250.084z"/>
	</g>
	<g>
		<path d="M114.631,119.633V93.111h7.382c1.819,0,3.306,0.158,4.461,0.474c1.166,0.326,2.143,0.819,2.93,1.479
			c0.787,0.658,1.443,1.485,1.968,2.482c0.524,0.997,0.787,2.167,0.787,3.508c0,1.481-0.379,2.846-1.137,4.094
			s-1.72,2.151-2.886,2.711c-1.517,0.736-3.558,1.104-6.123,1.104h-4.723v10.671L114.631,119.633L114.631,119.633z M117.291,95.525
			v11.021h3.831c1.738,0.012,2.845-0.012,3.324-0.07c0.979-0.115,1.784-0.367,2.414-0.752c0.816-0.514,1.461-1.175,1.933-1.984
			c0.472-0.811,0.708-1.706,0.708-2.686c0-1.027-0.23-1.925-0.691-2.695c-0.461-0.77-1.041-1.375-1.741-1.818
			c-0.7-0.441-1.586-0.74-2.659-0.893c-0.618-0.082-1.714-0.123-3.289-0.123H117.291z"/>
		<path d="M135.641,119.633V93.111h6.735c2.134,0,3.825,0.171,5.073,0.509s2.289,0.853,3.123,1.536
			c0.834,0.688,1.507,1.493,2.021,2.414c0.688,1.26,1.033,2.601,1.033,4.022c0,1.33-0.286,2.588-0.856,3.771
			c-0.572,1.184-1.465,2.166-2.678,2.947s-2.658,1.26-4.338,1.435l7.487,9.884H149.9l-8.992-12.001
			c2.029-0.011,3.341-0.04,3.936-0.087c0.991-0.082,1.799-0.242,2.424-0.48c0.623-0.238,1.229-0.619,1.818-1.138
			s1.053-1.166,1.361-1.942c0.338-0.774,0.508-1.564,0.508-2.369c0-0.991-0.228-1.915-0.682-2.772
			c-0.455-0.856-1.033-1.53-1.732-2.021c-0.502-0.361-1.225-0.668-2.17-0.92c-0.944-0.25-2.104-0.375-3.48-0.375h-4.62v24.105
			H135.641z"/>
		<path d="M155.637,106.514c0-1.912,0.352-3.697,1.059-5.354c0.705-1.655,1.646-3.072,2.824-4.25
			c1.179-1.179,2.496-2.117,3.955-2.817c1.971-0.956,4.033-1.434,6.191-1.434c2.006,0,3.881,0.361,5.624,1.172
			s3.198,1.761,4.364,2.938c1.166,1.18,2.07,2.449,2.712,3.813c0.886,1.819,1.329,3.75,1.329,5.791c0,1.959-0.377,3.758-1.129,5.366
			c-0.752,1.636-1.711,3.026-2.877,4.164c-1.166,1.137-2.449,2.049-3.85,2.737c-1.971,0.956-4.035,1.435-6.191,1.435
			c-2.041,0-4-0.432-5.879-1.295c-1.536-0.723-2.893-1.658-4.059-2.808s-2.07-2.382-2.711-3.7
			C156.091,110.438,155.637,108.507,155.637,106.514z M158.295,106.514c0,1.608,0.361,3.178,1.085,4.705
			c0.524,1.107,1.263,2.143,2.213,3.104c0.95,0.963,2.116,1.765,3.499,2.405c1.383,0.642,2.906,0.963,4.574,0.963
			c1.947,0,3.828-0.506,5.643-1.515c1.813-1.009,3.221-2.369,4.225-4.172c1.003-1.772,1.505-3.636,1.505-5.599
			c0-1.235-0.204-2.448-0.612-3.636c-0.408-1.189-0.969-2.238-1.68-3.148c-0.712-0.909-1.505-1.693-2.379-2.354
			c-0.875-0.658-1.891-1.191-3.044-1.601c-1.154-0.409-2.374-0.612-3.656-0.612c-1.715,0-3.342,0.373-4.881,1.119
			c-1.188,0.571-2.28,1.354-3.271,2.346c-0.992,0.99-1.775,2.184-2.354,3.576S158.295,104.962,158.295,106.514z"/>
		<path d="M199.633,93.111v18.106c0,2.298-0.244,4.013-0.734,5.144c-0.502,1.144-1.336,2.053-2.502,2.729s-2.426,1.016-3.778,1.016
			c-1.119,0-2.144-0.217-3.069-0.647c-0.928-0.433-1.68-0.953-2.257-1.565c-0.577-0.611-1.009-1.279-1.295-2.002
			c-0.286-0.725-0.47-1.576-0.552-2.556h2.625c0.14,1.354,0.633,2.417,1.479,3.192s1.896,1.164,3.157,1.164
			c0.805,0,1.487-0.146,2.047-0.438s1.003-0.687,1.329-1.181c0.326-0.496,0.554-1.088,0.684-1.776
			c0.136-0.688,0.209-1.714,0.209-3.078V93.111H199.633z"/>
		<path d="M205.004,119.633V93.111h14.502v2.414h-11.844v9.518h11.459v2.414h-11.459v9.779h11.844v2.366L205.004,119.633
			L205.004,119.633z"/>
		<path d="M246.357,112.688h2.974c-0.711,1.203-1.376,2.142-1.994,2.816c-0.887,0.992-1.897,1.835-3.035,2.528
			c-1.137,0.694-2.325,1.213-3.567,1.557c-1.242,0.345-2.477,0.517-3.7,0.517c-2.354,0-4.634-0.605-6.831-1.818
			c-2.198-1.213-3.907-2.893-5.126-5.038c-1.22-2.146-1.828-4.438-1.828-6.875c0-2.414,0.604-4.694,1.812-6.84s2.9-3.823,5.082-5.03
			c2.181-1.207,4.473-1.811,6.875-1.811c2.601,0,5.025,0.658,7.276,1.978c2.251,1.317,3.896,3.072,4.935,5.267h-2.976
			c-0.733-1.004-1.417-1.778-2.046-2.328c-0.887-0.77-1.907-1.381-3.063-1.836c-1.154-0.455-2.442-0.683-3.865-0.683
			c-2.041,0-3.945,0.505-5.713,1.513c-1.767,1.01-3.15,2.43-4.153,4.261s-1.505,3.69-1.505,5.579c0,1.6,0.32,3.08,0.962,4.443
			c0.642,1.365,1.448,2.521,2.423,3.465c0.975,0.943,2.016,1.69,3.123,2.238c1.527,0.746,3.104,1.12,4.725,1.12
			c1.316,0,2.576-0.235,3.777-0.709s2.279-1.11,3.236-1.915C244.854,114.502,245.588,113.702,246.357,112.688z"/>
		<path d="M257.134,119.633V95.525h-6.088v-2.414h14.8v2.414h-6.053v24.106L257.134,119.633L257.134,119.633z"/>
		<path d="M266.878,112.216h2.659c0.07,1.119,0.326,2.093,0.77,2.921c0.444,0.828,1.088,1.461,1.935,1.898
			c0.845,0.438,1.745,0.656,2.702,0.656c0.99,0,1.916-0.223,2.771-0.666c0.857-0.442,1.518-1.075,1.979-1.897
			c0.459-0.821,0.689-1.705,0.689-2.649c0-0.793-0.137-1.498-0.41-2.117c-0.273-0.617-0.66-1.143-1.154-1.573
			c-0.496-0.433-1.164-0.834-2.004-1.207c-0.502-0.222-1.41-0.531-2.729-0.929c-1.329-0.407-2.216-0.717-2.658-0.926
			c-0.887-0.42-1.609-0.916-2.17-1.487s-0.977-1.222-1.25-1.95s-0.41-1.571-0.41-2.528c0-1.259,0.313-2.444,0.943-3.56
			c0.63-1.113,1.527-1.982,2.693-2.605c1.166-0.625,2.432-0.937,3.797-0.937c2.074,0,3.808,0.676,5.195,2.028
			c1.387,1.354,2.109,3.078,2.168,5.179h-2.658c-0.047-1.369-0.527-2.552-1.442-3.455c-0.916-0.903-2.021-1.354-3.315-1.354
			c-1.34,0-2.463,0.448-3.367,1.346c-0.903,0.898-1.355,1.994-1.355,3.289c0,1.248,0.368,2.195,1.198,2.844
			c0.799,0.646,2.17,1.259,4.11,1.837c1.941,0.577,3.299,1.104,4.067,1.583c1.038,0.676,1.866,1.563,2.484,2.659
			c0.618,1.096,0.927,2.313,0.927,3.655c0,1.377-0.348,2.68-1.041,3.91c-0.693,1.229-1.668,2.191-2.921,2.887
			c-1.254,0.692-2.604,1.041-4.05,1.041c-0.979,0-1.942-0.158-2.887-0.474c-0.945-0.315-1.765-0.749-2.459-1.304
			c-0.692-0.555-1.244-1.169-1.652-1.846c-0.408-0.676-0.705-1.375-0.893-2.1C267,113.837,266.913,113.113,266.878,112.216z"/>
	</g>
	<rect x="201.368" y="25.75" fill="#E9204F" width="8.948" height="9.375"/>
</g>
</svg>
